<svg xmlns:xlink="http://www.w3.org/1999/xlink" xmlns="http://www.w3.org/2000/svg" aria-roledescription="er" role="graphics-document document" viewBox="0 0 1194.4317626953125 774" style="max-width: 3840px; background-color: white; max-height: 3840px;" width="100%" id="my-svg"><style>#my-svg{font-family:arial,sans-serif;font-size:14px;fill:#333;}@keyframes edge-animation-frame{from{stroke-dashoffset:0;}}@keyframes dash{to{stroke-dashoffset:0;}}#my-svg .edge-animation-slow{stroke-dasharray:9,5!important;stroke-dashoffset:900;animation:dash 50s linear infinite;stroke-linecap:round;}#my-svg .edge-animation-fast{stroke-dasharray:9,5!important;stroke-dashoffset:900;animation:dash 20s linear infinite;stroke-linecap:round;}#my-svg .error-icon{fill:#ffffff;}#my-svg .error-text{fill:#000000;stroke:#000000;}#my-svg .edge-thickness-normal{stroke-width:2px;}#my-svg .edge-thickness-thick{stroke-width:3.5px;}#my-svg .edge-pattern-solid{stroke-dasharray:0;}#my-svg .edge-thickness-invisible{stroke-width:0;fill:none;}#my-svg .edge-pattern-dashed{stroke-dasharray:3;}#my-svg .edge-pattern-dotted{stroke-dasharray:2;}#my-svg .marker{fill:#000000;stroke:#000000;}#my-svg .marker.cross{stroke:#000000;}#my-svg svg{font-family:arial,sans-serif;font-size:14px;}#my-svg p{margin:0;}#my-svg .entityBox{fill:#ffffff;stroke:#000000;}#my-svg .attributeBoxOdd{fill:#ffffff;stroke:#000000;}#my-svg .attributeBoxEven{fill:#f2f2f2;stroke:#000000;}#my-svg .relationshipLabelBox{fill:#ffffff;opacity:0.7;background-color:#ffffff;}#my-svg .relationshipLabelBox rect{opacity:0.5;}#my-svg .relationshipLine{stroke:#000000;}#my-svg .entityTitleText{text-anchor:middle;font-size:18px;fill:#333;}#my-svg #MD_PARENT_START{fill:#f5f5f5!important;stroke:#000000!important;stroke-width:1;}#my-svg #MD_PARENT_END{fill:#f5f5f5!important;stroke:#000000!important;stroke-width:1;}#my-svg .node .neo-node{stroke:#000000;}#my-svg [data-look="neo"].node rect,#my-svg [data-look="neo"].cluster rect,#my-svg [data-look="neo"].node polygon{stroke:url(#my-svg-gradient);filter:drop-shadow( 0px 1px 2px rgba(0, 0, 0, 0.25));}#my-svg [data-look="neo"].node path{stroke:url(#my-svg-gradient);}#my-svg [data-look="neo"].node .outer-path{filter:drop-shadow( 0px 1px 2px rgba(0, 0, 0, 0.25));}#my-svg [data-look="neo"].node .neo-line path{stroke:hsl(0, 0%, 70%);filter:none;}#my-svg [data-look="neo"].node circle{stroke:url(#my-svg-gradient);filter:drop-shadow( 0px 1px 2px rgba(0, 0, 0, 0.25));}#my-svg [data-look="neo"].node circle .state-start{fill:#000000;}#my-svg [data-look="neo"].statediagram-cluster rect{fill:#ffffff;stroke:url(#my-svg-gradient);stroke-width:1px;}#my-svg [data-look="neo"].icon-shape .icon{fill:url(#my-svg-gradient);filter:drop-shadow( 0px 1px 2px rgba(0, 0, 0, 0.25));}#my-svg [data-look="neo"].icon-shape .icon-neo path{stroke:url(#my-svg-gradient);filter:drop-shadow( 0px 1px 2px rgba(0, 0, 0, 0.25));}#my-svg :root{--mermaid-font-family:"trebuchet ms",verdana,arial,sans-serif;}</style><g/><defs><marker orient="auto" markerHeight="240" markerWidth="190" refY="7" refX="0" id="MD_PARENT_START"><path d="M 18,7 L9,13 L1,7 L9,1 Z"/></marker></defs><defs><marker orient="auto" markerHeight="28" markerWidth="20" refY="7" refX="19" id="MD_PARENT_END"><path d="M 18,7 L9,13 L1,7 L9,1 Z"/></marker></defs><defs><marker orient="auto" markerHeight="18" markerWidth="18" refY="9" refX="0" id="ONLY_ONE_START"><path d="M9,0 L9,18 M15,0 L15,18" fill="none" stroke="gray"/></marker></defs><defs><marker orient="auto" markerHeight="18" markerWidth="18" refY="9" refX="18" id="ONLY_ONE_END"><path d="M3,0 L3,18 M9,0 L9,18" fill="none" stroke="gray"/></marker></defs><defs><marker orient="auto" markerHeight="18" markerWidth="30" refY="9" refX="0" id="ZERO_OR_ONE_START"><circle r="6" cy="9" cx="21" fill="white" stroke="gray"/><path d="M9,0 L9,18" fill="none" stroke="gray"/></marker></defs><defs><marker orient="auto" markerHeight="18" markerWidth="30" refY="9" refX="30" id="ZERO_OR_ONE_END"><circle r="6" cy="9" cx="9" fill="white" stroke="gray"/><path d="M21,0 L21,18" fill="none" stroke="gray"/></marker></defs><defs><marker orient="auto" markerHeight="36" markerWidth="45" refY="18" refX="18" id="ONE_OR_MORE_START"><path d="M0,18 Q 18,0 36,18 Q 18,36 0,18 M42,9 L42,27" fill="none" stroke="gray"/></marker></defs><defs><marker orient="auto" markerHeight="36" markerWidth="45" refY="18" refX="27" id="ONE_OR_MORE_END"><path d="M3,9 L3,27 M9,18 Q27,0 45,18 Q27,36 9,18" fill="none" stroke="gray"/></marker></defs><defs><marker orient="auto" markerHeight="36" markerWidth="57" refY="18" refX="18" id="ZERO_OR_MORE_START"><circle r="6" cy="18" cx="48" fill="white" stroke="gray"/><path d="M0,18 Q18,0 36,18 Q18,36 0,18" fill="none" stroke="gray"/></marker></defs><defs><marker orient="auto" markerHeight="36" markerWidth="57" refY="18" refX="39" id="ZERO_OR_MORE_END"><circle r="6" cy="18" cx="9" fill="white" stroke="gray"/><path d="M21,18 Q39,0 57,18 Q39,36 21,18" fill="none" stroke="gray"/></marker></defs><path style="stroke: gray; fill: none;" marker-start="url(#ONLY_ONE_START)" marker-end="url(#ZERO_OR_MORE_END)" d="M183.7,464.582L168.188,479.485C152.676,494.388,121.652,524.194,106.14,550.93C90.628,577.667,90.628,601.333,90.628,613.167L90.628,625" class="er relationshipLine"/><path style="stroke: gray; fill: none;" marker-start="url(#ONLY_ONE_START)" marker-end="url(#ZERO_OR_MORE_END)" d="M301.488,493.985L308.339,503.987C315.19,513.99,328.892,533.995,335.743,555.831C342.594,577.667,342.594,601.333,342.594,613.167L342.594,625" class="er relationshipLine"/><path style="stroke: gray; fill: none;" marker-start="url(#ONLY_ONE_START)" marker-end="url(#ZERO_OR_MORE_END)" d="M301.488,430.928L354.177,451.44C406.865,471.952,512.242,512.976,564.931,543.571C617.62,574.167,617.62,594.333,617.62,604.417L617.62,614.5" class="er relationshipLine"/><path style="stroke: gray; fill: none;" marker-start="url(#ONLY_ONE_START)" marker-end="url(#ZERO_OR_MORE_END)" d="M870.4,212L870.4,220.333C870.4,228.667,870.4,245.333,870.4,267.25C870.4,289.167,870.4,316.333,870.4,329.917L870.4,343.5" class="er relationshipLine"/><path style="stroke: gray; fill: none;" marker-start="url(#ONLY_ONE_START)" marker-end="url(#ZERO_OR_MORE_END)" d="M814.563,472.5L802.804,486.083C791.045,499.667,767.527,526.833,702.422,557.029C637.317,587.224,530.625,620.448,477.278,637.06L423.932,653.672" class="er relationshipLine"/><path style="stroke: gray; fill: none;" marker-start="url(#ONLY_ONE_START)" marker-end="url(#ONLY_ONE_END)" d="M870.4,472.5L870.4,486.083C870.4,499.667,870.4,526.833,870.4,548.75C870.4,570.667,870.4,587.333,870.4,595.667L870.4,604" class="er relationshipLine"/><path style="stroke: gray; fill: none;" marker-start="url(#ZERO_OR_MORE_START)" marker-end="url(#ZERO_OR_MORE_END)" d="M934.385,448.343L962.314,465.952C990.244,483.562,1046.103,518.781,1074.032,544.724C1101.962,570.667,1101.962,587.333,1101.962,595.667L1101.962,604" class="er relationshipLine"/><g transform="translate(183.700439453125,312 )" id="entity-PRODUIT-90b23dbe-42cb-56cb-9504-9005294752b5"><rect height="192" width="117.78759765625" y="0" x="0" class="er entityBox"/><text style="dominant-baseline: middle; text-anchor: middle; font-size: 12px;" transform="translate(58.893798828125,12)" y="0" x="0" id="text-entity-PRODUIT-90b23dbe-42cb-56cb-9504-9005294752b5" class="er entityLabel">PRODUIT</text><rect height="21" width="45.14947509765625" y="24" x="0" class="er attributeBoxOdd"/><text style="dominant-baseline: middle; font-size: 10.2px;" transform="translate(5,34.5)" y="0" x="0" id="text-entity-PRODUIT-90b23dbe-42cb-56cb-9504-9005294752b5-attr-1-type" class="er entityLabel">string</text><rect height="21" width="72.63812255859375" y="24" x="45.14947509765625" class="er attributeBoxOdd"/><text style="dominant-baseline: middle; font-size: 10.2px;" transform="translate(50.14947509765625,34.5)" y="0" x="0" id="text-entity-PRODUIT-90b23dbe-42cb-56cb-9504-9005294752b5-attr-1-name" class="er entityLabel">id</text><rect height="21" width="45.14947509765625" y="45" x="0" class="er attributeBoxEven"/><text style="dominant-baseline: middle; font-size: 10.2px;" transform="translate(5,55.5)" y="0" x="0" id="text-entity-PRODUIT-90b23dbe-42cb-56cb-9504-9005294752b5-attr-2-type" class="er entityLabel">string</text><rect height="21" width="72.63812255859375" y="45" x="45.14947509765625" class="er attributeBoxEven"/><text style="dominant-baseline: middle; font-size: 10.2px;" transform="translate(50.14947509765625,55.5)" y="0" x="0" id="text-entity-PRODUIT-90b23dbe-42cb-56cb-9504-9005294752b5-attr-2-name" class="er entityLabel">nom</text><rect height="21" width="45.14947509765625" y="66" x="0" class="er attributeBoxOdd"/><text style="dominant-baseline: middle; font-size: 10.2px;" transform="translate(5,76.5)" y="0" x="0" id="text-entity-PRODUIT-90b23dbe-42cb-56cb-9504-9005294752b5-attr-3-type" class="er entityLabel">string</text><rect height="21" width="72.63812255859375" y="66" x="45.14947509765625" class="er attributeBoxOdd"/><text style="dominant-baseline: middle; font-size: 10.2px;" transform="translate(50.14947509765625,76.5)" y="0" x="0" id="text-entity-PRODUIT-90b23dbe-42cb-56cb-9504-9005294752b5-attr-3-name" class="er entityLabel">description</text><rect height="21" width="45.14947509765625" y="87" x="0" class="er attributeBoxEven"/><text style="dominant-baseline: middle; font-size: 10.2px;" transform="translate(5,97.5)" y="0" x="0" id="text-entity-PRODUIT-90b23dbe-42cb-56cb-9504-9005294752b5-attr-4-type" class="er entityLabel">number</text><rect height="21" width="72.63812255859375" y="87" x="45.14947509765625" class="er attributeBoxEven"/><text style="dominant-baseline: middle; font-size: 10.2px;" transform="translate(50.14947509765625,97.5)" y="0" x="0" id="text-entity-PRODUIT-90b23dbe-42cb-56cb-9504-9005294752b5-attr-4-name" class="er entityLabel">prix</text><rect height="21" width="45.14947509765625" y="108" x="0" class="er attributeBoxOdd"/><text style="dominant-baseline: middle; font-size: 10.2px;" transform="translate(5,118.5)" y="0" x="0" id="text-entity-PRODUIT-90b23dbe-42cb-56cb-9504-9005294752b5-attr-5-type" class="er entityLabel">string</text><rect height="21" width="72.63812255859375" y="108" x="45.14947509765625" class="er attributeBoxOdd"/><text style="dominant-baseline: middle; font-size: 10.2px;" transform="translate(50.14947509765625,118.5)" y="0" x="0" id="text-entity-PRODUIT-90b23dbe-42cb-56cb-9504-9005294752b5-attr-5-name" class="er entityLabel">categorie</text><rect height="21" width="45.14947509765625" y="129" x="0" class="er attributeBoxEven"/><text style="dominant-baseline: middle; font-size: 10.2px;" transform="translate(5,139.5)" y="0" x="0" id="text-entity-PRODUIT-90b23dbe-42cb-56cb-9504-9005294752b5-attr-6-type" class="er entityLabel">number</text><rect height="21" width="72.63812255859375" y="129" x="45.14947509765625" class="er attributeBoxEven"/><text style="dominant-baseline: middle; font-size: 10.2px;" transform="translate(50.14947509765625,139.5)" y="0" x="0" id="text-entity-PRODUIT-90b23dbe-42cb-56cb-9504-9005294752b5-attr-6-name" class="er entityLabel">quantiteStock</text><rect height="21" width="45.14947509765625" y="150" x="0" class="er attributeBoxOdd"/><text style="dominant-baseline: middle; font-size: 10.2px;" transform="translate(5,160.5)" y="0" x="0" id="text-entity-PRODUIT-90b23dbe-42cb-56cb-9504-9005294752b5-attr-7-type" class="er entityLabel">string</text><rect height="21" width="72.63812255859375" y="150" x="45.14947509765625" class="er attributeBoxOdd"/><text style="dominant-baseline: middle; font-size: 10.2px;" transform="translate(50.14947509765625,160.5)" y="0" x="0" id="text-entity-PRODUIT-90b23dbe-42cb-56cb-9504-9005294752b5-attr-7-name" class="er entityLabel">imageUrl</text><rect height="21" width="45.14947509765625" y="171" x="0" class="er attributeBoxEven"/><text style="dominant-baseline: middle; font-size: 10.2px;" transform="translate(5,181.5)" y="0" x="0" id="text-entity-PRODUIT-90b23dbe-42cb-56cb-9504-9005294752b5-attr-8-type" class="er entityLabel">date</text><rect height="21" width="72.63812255859375" y="171" x="45.14947509765625" class="er attributeBoxEven"/><text style="dominant-baseline: middle; font-size: 10.2px;" transform="translate(50.14947509765625,181.5)" y="0" x="0" id="text-entity-PRODUIT-90b23dbe-42cb-56cb-9504-9005294752b5-attr-8-name" class="er entityLabel">dateAjout</text></g><g transform="translate(20,625 )" id="entity-STOCK-f8efef71-5931-5657-ad9e-7d1eb2fb7d59"><rect height="108" width="141.25634765625" y="0" x="0" class="er entityBox"/><text style="dominant-baseline: middle; text-anchor: middle; font-size: 12px;" transform="translate(70.628173828125,12)" y="0" x="0" id="text-entity-STOCK-f8efef71-5931-5657-ad9e-7d1eb2fb7d59" class="er entityLabel">STOCK</text><rect height="21" width="45.14947509765625" y="24" x="0" class="er attributeBoxOdd"/><text style="dominant-baseline: middle; font-size: 10.2px;" transform="translate(5,34.5)" y="0" x="0" id="text-entity-STOCK-f8efef71-5931-5657-ad9e-7d1eb2fb7d59-attr-1-type" class="er entityLabel">string</text><rect height="21" width="96.10687255859375" y="24" x="45.14947509765625" class="er attributeBoxOdd"/><text style="dominant-baseline: middle; font-size: 10.2px;" transform="translate(50.14947509765625,34.5)" y="0" x="0" id="text-entity-STOCK-f8efef71-5931-5657-ad9e-7d1eb2fb7d59-attr-1-name" class="er entityLabel">id</text><rect height="21" width="45.14947509765625" y="45" x="0" class="er attributeBoxEven"/><text style="dominant-baseline: middle; font-size: 10.2px;" transform="translate(5,55.5)" y="0" x="0" id="text-entity-STOCK-f8efef71-5931-5657-ad9e-7d1eb2fb7d59-attr-2-type" class="er entityLabel">string</text><rect height="21" width="96.10687255859375" y="45" x="45.14947509765625" class="er attributeBoxEven"/><text style="dominant-baseline: middle; font-size: 10.2px;" transform="translate(50.14947509765625,55.5)" y="0" x="0" id="text-entity-STOCK-f8efef71-5931-5657-ad9e-7d1eb2fb7d59-attr-2-name" class="er entityLabel">produitId</text><rect height="21" width="45.14947509765625" y="66" x="0" class="er attributeBoxOdd"/><text style="dominant-baseline: middle; font-size: 10.2px;" transform="translate(5,76.5)" y="0" x="0" id="text-entity-STOCK-f8efef71-5931-5657-ad9e-7d1eb2fb7d59-attr-3-type" class="er entityLabel">number</text><rect height="21" width="96.10687255859375" y="66" x="45.14947509765625" class="er attributeBoxOdd"/><text style="dominant-baseline: middle; font-size: 10.2px;" transform="translate(50.14947509765625,76.5)" y="0" x="0" id="text-entity-STOCK-f8efef71-5931-5657-ad9e-7d1eb2fb7d59-attr-3-name" class="er entityLabel">quantiteDisponible</text><rect height="21" width="45.14947509765625" y="87" x="0" class="er attributeBoxEven"/><text style="dominant-baseline: middle; font-size: 10.2px;" transform="translate(5,97.5)" y="0" x="0" id="text-entity-STOCK-f8efef71-5931-5657-ad9e-7d1eb2fb7d59-attr-4-type" class="er entityLabel">date</text><rect height="21" width="96.10687255859375" y="87" x="45.14947509765625" class="er attributeBoxEven"/><text style="dominant-baseline: middle; font-size: 10.2px;" transform="translate(50.14947509765625,97.5)" y="0" x="0" id="text-entity-STOCK-f8efef71-5931-5657-ad9e-7d1eb2fb7d59-attr-4-name" class="er entityLabel">derniereMiseAJour</text></g><g transform="translate(261.25634765625,625 )" id="entity-COMMANDEPRODUIT-ef53b499-0b31-5e2f-a0d1-2147b8d10da0"><rect height="108" width="162.67578125" y="0" x="0" class="er entityBox"/><text style="dominant-baseline: middle; text-anchor: middle; font-size: 12px;" transform="translate(81.337890625,12)" y="0" x="0" id="text-entity-COMMANDEPRODUIT-ef53b499-0b31-5e2f-a0d1-2147b8d10da0" class="er entityLabel">COMMANDE_PRODUIT</text><rect height="21" width="69.45950317382812" y="24" x="0" class="er attributeBoxOdd"/><text style="dominant-baseline: middle; font-size: 10.2px;" transform="translate(5,34.5)" y="0" x="0" id="text-entity-COMMANDEPRODUIT-ef53b499-0b31-5e2f-a0d1-2147b8d10da0-attr-1-type" class="er entityLabel">string</text><rect height="21" width="93.21627807617188" y="24" x="69.45950317382812" class="er attributeBoxOdd"/><text style="dominant-baseline: middle; font-size: 10.2px;" transform="translate(74.45950317382812,34.5)" y="0" x="0" id="text-entity-COMMANDEPRODUIT-ef53b499-0b31-5e2f-a0d1-2147b8d10da0-attr-1-name" class="er entityLabel">commandeId</text><rect height="21" width="69.45950317382812" y="45" x="0" class="er attributeBoxEven"/><text style="dominant-baseline: middle; font-size: 10.2px;" transform="translate(5,55.5)" y="0" x="0" id="text-entity-COMMANDEPRODUIT-ef53b499-0b31-5e2f-a0d1-2147b8d10da0-attr-2-type" class="er entityLabel">string</text><rect height="21" width="93.21627807617188" y="45" x="69.45950317382812" class="er attributeBoxEven"/><text style="dominant-baseline: middle; font-size: 10.2px;" transform="translate(74.45950317382812,55.5)" y="0" x="0" id="text-entity-COMMANDEPRODUIT-ef53b499-0b31-5e2f-a0d1-2147b8d10da0-attr-2-name" class="er entityLabel">produitId</text><rect height="21" width="69.45950317382812" y="66" x="0" class="er attributeBoxOdd"/><text style="dominant-baseline: middle; font-size: 10.2px;" transform="translate(5,76.5)" y="0" x="0" id="text-entity-COMMANDEPRODUIT-ef53b499-0b31-5e2f-a0d1-2147b8d10da0-attr-3-type" class="er entityLabel">number</text><rect height="21" width="93.21627807617188" y="66" x="69.45950317382812" class="er attributeBoxOdd"/><text style="dominant-baseline: middle; font-size: 10.2px;" transform="translate(74.45950317382812,76.5)" y="0" x="0" id="text-entity-COMMANDEPRODUIT-ef53b499-0b31-5e2f-a0d1-2147b8d10da0-attr-3-name" class="er entityLabel">quantite</text><rect height="21" width="69.45950317382812" y="87" x="0" class="er attributeBoxEven"/><text style="dominant-baseline: middle; font-size: 10.2px;" transform="translate(5,97.5)" y="0" x="0" id="text-entity-COMMANDEPRODUIT-ef53b499-0b31-5e2f-a0d1-2147b8d10da0-attr-4-type" class="er entityLabel">number</text><rect height="21" width="93.21627807617188" y="87" x="69.45950317382812" class="er attributeBoxEven"/><text style="dominant-baseline: middle; font-size: 10.2px;" transform="translate(74.45950317382812,97.5)" y="0" x="0" id="text-entity-COMMANDEPRODUIT-ef53b499-0b31-5e2f-a0d1-2147b8d10da0-attr-4-name" class="er entityLabel">prixUnitaire</text></g><g transform="translate(523.93212890625,614.5 )" id="entity-STATISTIQUESRAPPORTS-0e0242d9-1c2b-5691-b534-3d3ca80b4482"><rect height="129" width="187.375" y="0" x="0" class="er entityBox"/><text style="dominant-baseline: middle; text-anchor: middle; font-size: 12px;" transform="translate(93.6875,12)" y="0" x="0" id="text-entity-STATISTIQUESRAPPORTS-0e0242d9-1c2b-5691-b534-3d3ca80b4482" class="er entityLabel">STATISTIQUES_RAPPORTS</text><rect height="21" width="76.98358154296875" y="24" x="0" class="er attributeBoxOdd"/><text style="dominant-baseline: middle; font-size: 10.2px;" transform="translate(5,34.5)" y="0" x="0" id="text-entity-STATISTIQUESRAPPORTS-0e0242d9-1c2b-5691-b534-3d3ca80b4482-attr-1-type" class="er entityLabel">string</text><rect height="21" width="110.39141845703125" y="24" x="76.98358154296875" class="er attributeBoxOdd"/><text style="dominant-baseline: middle; font-size: 10.2px;" transform="translate(81.98358154296875,34.5)" y="0" x="0" id="text-entity-STATISTIQUESRAPPORTS-0e0242d9-1c2b-5691-b534-3d3ca80b4482-attr-1-name" class="er entityLabel">id</text><rect height="21" width="76.98358154296875" y="45" x="0" class="er attributeBoxEven"/><text style="dominant-baseline: middle; font-size: 10.2px;" transform="translate(5,55.5)" y="0" x="0" id="text-entity-STATISTIQUESRAPPORTS-0e0242d9-1c2b-5691-b534-3d3ca80b4482-attr-2-type" class="er entityLabel">string</text><rect height="21" width="110.39141845703125" y="45" x="76.98358154296875" class="er attributeBoxEven"/><text style="dominant-baseline: middle; font-size: 10.2px;" transform="translate(81.98358154296875,55.5)" y="0" x="0" id="text-entity-STATISTIQUESRAPPORTS-0e0242d9-1c2b-5691-b534-3d3ca80b4482-attr-2-name" class="er entityLabel">produitId</text><rect height="21" width="76.98358154296875" y="66" x="0" class="er attributeBoxOdd"/><text style="dominant-baseline: middle; font-size: 10.2px;" transform="translate(5,76.5)" y="0" x="0" id="text-entity-STATISTIQUESRAPPORTS-0e0242d9-1c2b-5691-b534-3d3ca80b4482-attr-3-type" class="er entityLabel">number</text><rect height="21" width="110.39141845703125" y="66" x="76.98358154296875" class="er attributeBoxOdd"/><text style="dominant-baseline: middle; font-size: 10.2px;" transform="translate(81.98358154296875,76.5)" y="0" x="0" id="text-entity-STATISTIQUESRAPPORTS-0e0242d9-1c2b-5691-b534-3d3ca80b4482-attr-3-name" class="er entityLabel">nombreVentes</text><rect height="21" width="76.98358154296875" y="87" x="0" class="er attributeBoxEven"/><text style="dominant-baseline: middle; font-size: 10.2px;" transform="translate(5,97.5)" y="0" x="0" id="text-entity-STATISTIQUESRAPPORTS-0e0242d9-1c2b-5691-b534-3d3ca80b4482-attr-4-type" class="er entityLabel">number</text><rect height="21" width="110.39141845703125" y="87" x="76.98358154296875" class="er attributeBoxEven"/><text style="dominant-baseline: middle; font-size: 10.2px;" transform="translate(81.98358154296875,97.5)" y="0" x="0" id="text-entity-STATISTIQUESRAPPORTS-0e0242d9-1c2b-5691-b534-3d3ca80b4482-attr-4-name" class="er entityLabel">revenuTotal</text><rect height="21" width="76.98358154296875" y="108" x="0" class="er attributeBoxOdd"/><text style="dominant-baseline: middle; font-size: 10.2px;" transform="translate(5,118.5)" y="0" x="0" id="text-entity-STATISTIQUESRAPPORTS-0e0242d9-1c2b-5691-b534-3d3ca80b4482-attr-5-type" class="er entityLabel">date</text><rect height="21" width="110.39141845703125" y="108" x="76.98358154296875" class="er attributeBoxOdd"/><text style="dominant-baseline: middle; font-size: 10.2px;" transform="translate(81.98358154296875,118.5)" y="0" x="0" id="text-entity-STATISTIQUESRAPPORTS-0e0242d9-1c2b-5691-b534-3d3ca80b4482-attr-5-name" class="er entityLabel">dateMiseAJour</text></g><g transform="translate(814.5246734619141,20 )" id="entity-UTILISATEUR-c245c136-aadc-5479-a24a-15e47b1e341f"><rect height="192" width="111.75" y="0" x="0" class="er entityBox"/><text style="dominant-baseline: middle; text-anchor: middle; font-size: 12px;" transform="translate(55.875,12)" y="0" x="0" id="text-entity-UTILISATEUR-c245c136-aadc-5479-a24a-15e47b1e341f" class="er entityLabel">UTILISATEUR</text><rect height="21" width="35.484375" y="24" x="0" class="er attributeBoxOdd"/><text style="dominant-baseline: middle; font-size: 10.2px;" transform="translate(5,34.5)" y="0" x="0" id="text-entity-UTILISATEUR-c245c136-aadc-5479-a24a-15e47b1e341f-attr-1-type" class="er entityLabel">string</text><rect height="21" width="76.265625" y="24" x="35.484375" class="er attributeBoxOdd"/><text style="dominant-baseline: middle; font-size: 10.2px;" transform="translate(40.484375,34.5)" y="0" x="0" id="text-entity-UTILISATEUR-c245c136-aadc-5479-a24a-15e47b1e341f-attr-1-name" class="er entityLabel">id</text><rect height="21" width="35.484375" y="45" x="0" class="er attributeBoxEven"/><text style="dominant-baseline: middle; font-size: 10.2px;" transform="translate(5,55.5)" y="0" x="0" id="text-entity-UTILISATEUR-c245c136-aadc-5479-a24a-15e47b1e341f-attr-2-type" class="er entityLabel">string</text><rect height="21" width="76.265625" y="45" x="35.484375" class="er attributeBoxEven"/><text style="dominant-baseline: middle; font-size: 10.2px;" transform="translate(40.484375,55.5)" y="0" x="0" id="text-entity-UTILISATEUR-c245c136-aadc-5479-a24a-15e47b1e341f-attr-2-name" class="er entityLabel">nom</text><rect height="21" width="35.484375" y="66" x="0" class="er attributeBoxOdd"/><text style="dominant-baseline: middle; font-size: 10.2px;" transform="translate(5,76.5)" y="0" x="0" id="text-entity-UTILISATEUR-c245c136-aadc-5479-a24a-15e47b1e341f-attr-3-type" class="er entityLabel">string</text><rect height="21" width="76.265625" y="66" x="35.484375" class="er attributeBoxOdd"/><text style="dominant-baseline: middle; font-size: 10.2px;" transform="translate(40.484375,76.5)" y="0" x="0" id="text-entity-UTILISATEUR-c245c136-aadc-5479-a24a-15e47b1e341f-attr-3-name" class="er entityLabel">email</text><rect height="21" width="35.484375" y="87" x="0" class="er attributeBoxEven"/><text style="dominant-baseline: middle; font-size: 10.2px;" transform="translate(5,97.5)" y="0" x="0" id="text-entity-UTILISATEUR-c245c136-aadc-5479-a24a-15e47b1e341f-attr-4-type" class="er entityLabel">string</text><rect height="21" width="76.265625" y="87" x="35.484375" class="er attributeBoxEven"/><text style="dominant-baseline: middle; font-size: 10.2px;" transform="translate(40.484375,97.5)" y="0" x="0" id="text-entity-UTILISATEUR-c245c136-aadc-5479-a24a-15e47b1e341f-attr-4-name" class="er entityLabel">motDePasse</text><rect height="21" width="35.484375" y="108" x="0" class="er attributeBoxOdd"/><text style="dominant-baseline: middle; font-size: 10.2px;" transform="translate(5,118.5)" y="0" x="0" id="text-entity-UTILISATEUR-c245c136-aadc-5479-a24a-15e47b1e341f-attr-5-type" class="er entityLabel">enum</text><rect height="21" width="76.265625" y="108" x="35.484375" class="er attributeBoxOdd"/><text style="dominant-baseline: middle; font-size: 10.2px;" transform="translate(40.484375,118.5)" y="0" x="0" id="text-entity-UTILISATEUR-c245c136-aadc-5479-a24a-15e47b1e341f-attr-5-name" class="er entityLabel">role</text><rect height="21" width="35.484375" y="129" x="0" class="er attributeBoxEven"/><text style="dominant-baseline: middle; font-size: 10.2px;" transform="translate(5,139.5)" y="0" x="0" id="text-entity-UTILISATEUR-c245c136-aadc-5479-a24a-15e47b1e341f-attr-6-type" class="er entityLabel">string</text><rect height="21" width="76.265625" y="129" x="35.484375" class="er attributeBoxEven"/><text style="dominant-baseline: middle; font-size: 10.2px;" transform="translate(40.484375,139.5)" y="0" x="0" id="text-entity-UTILISATEUR-c245c136-aadc-5479-a24a-15e47b1e341f-attr-6-name" class="er entityLabel">adresse</text><rect height="21" width="35.484375" y="150" x="0" class="er attributeBoxOdd"/><text style="dominant-baseline: middle; font-size: 10.2px;" transform="translate(5,160.5)" y="0" x="0" id="text-entity-UTILISATEUR-c245c136-aadc-5479-a24a-15e47b1e341f-attr-7-type" class="er entityLabel">string</text><rect height="21" width="76.265625" y="150" x="35.484375" class="er attributeBoxOdd"/><text style="dominant-baseline: middle; font-size: 10.2px;" transform="translate(40.484375,160.5)" y="0" x="0" id="text-entity-UTILISATEUR-c245c136-aadc-5479-a24a-15e47b1e341f-attr-7-name" class="er entityLabel">telephone</text><rect height="21" width="35.484375" y="171" x="0" class="er attributeBoxEven"/><text style="dominant-baseline: middle; font-size: 10.2px;" transform="translate(5,181.5)" y="0" x="0" id="text-entity-UTILISATEUR-c245c136-aadc-5479-a24a-15e47b1e341f-attr-8-type" class="er entityLabel">date</text><rect height="21" width="76.265625" y="171" x="35.484375" class="er attributeBoxEven"/><text style="dominant-baseline: middle; font-size: 10.2px;" transform="translate(40.484375,181.5)" y="0" x="0" id="text-entity-UTILISATEUR-c245c136-aadc-5479-a24a-15e47b1e341f-attr-8-name" class="er entityLabel">dateInscription</text></g><g transform="translate(806.4146118164062,343.5 )" id="entity-COMMANDE-6a677fbb-11e7-526d-964b-91afe7d301cd"><rect height="129" width="127.97012329101562" y="0" x="0" class="er entityBox"/><text style="dominant-baseline: middle; text-anchor: middle; font-size: 12px;" transform="translate(63.98506164550781,12)" y="0" x="0" id="text-entity-COMMANDE-6a677fbb-11e7-526d-964b-91afe7d301cd" class="er entityLabel">COMMANDE</text><rect height="21" width="45.14947509765625" y="24" x="0" class="er attributeBoxOdd"/><text style="dominant-baseline: middle; font-size: 10.2px;" transform="translate(5,34.5)" y="0" x="0" id="text-entity-COMMANDE-6a677fbb-11e7-526d-964b-91afe7d301cd-attr-1-type" class="er entityLabel">string</text><rect height="21" width="82.82064819335938" y="24" x="45.14947509765625" class="er attributeBoxOdd"/><text style="dominant-baseline: middle; font-size: 10.2px;" transform="translate(50.14947509765625,34.5)" y="0" x="0" id="text-entity-COMMANDE-6a677fbb-11e7-526d-964b-91afe7d301cd-attr-1-name" class="er entityLabel">id</text><rect height="21" width="45.14947509765625" y="45" x="0" class="er attributeBoxEven"/><text style="dominant-baseline: middle; font-size: 10.2px;" transform="translate(5,55.5)" y="0" x="0" id="text-entity-COMMANDE-6a677fbb-11e7-526d-964b-91afe7d301cd-attr-2-type" class="er entityLabel">string</text><rect height="21" width="82.82064819335938" y="45" x="45.14947509765625" class="er attributeBoxEven"/><text style="dominant-baseline: middle; font-size: 10.2px;" transform="translate(50.14947509765625,55.5)" y="0" x="0" id="text-entity-COMMANDE-6a677fbb-11e7-526d-964b-91afe7d301cd-attr-2-name" class="er entityLabel">clientId</text><rect height="21" width="45.14947509765625" y="66" x="0" class="er attributeBoxOdd"/><text style="dominant-baseline: middle; font-size: 10.2px;" transform="translate(5,76.5)" y="0" x="0" id="text-entity-COMMANDE-6a677fbb-11e7-526d-964b-91afe7d301cd-attr-3-type" class="er entityLabel">number</text><rect height="21" width="82.82064819335938" y="66" x="45.14947509765625" class="er attributeBoxOdd"/><text style="dominant-baseline: middle; font-size: 10.2px;" transform="translate(50.14947509765625,76.5)" y="0" x="0" id="text-entity-COMMANDE-6a677fbb-11e7-526d-964b-91afe7d301cd-attr-3-name" class="er entityLabel">total</text><rect height="21" width="45.14947509765625" y="87" x="0" class="er attributeBoxEven"/><text style="dominant-baseline: middle; font-size: 10.2px;" transform="translate(5,97.5)" y="0" x="0" id="text-entity-COMMANDE-6a677fbb-11e7-526d-964b-91afe7d301cd-attr-4-type" class="er entityLabel">enum</text><rect height="21" width="82.82064819335938" y="87" x="45.14947509765625" class="er attributeBoxEven"/><text style="dominant-baseline: middle; font-size: 10.2px;" transform="translate(50.14947509765625,97.5)" y="0" x="0" id="text-entity-COMMANDE-6a677fbb-11e7-526d-964b-91afe7d301cd-attr-4-name" class="er entityLabel">statut</text><rect height="21" width="45.14947509765625" y="108" x="0" class="er attributeBoxOdd"/><text style="dominant-baseline: middle; font-size: 10.2px;" transform="translate(5,118.5)" y="0" x="0" id="text-entity-COMMANDE-6a677fbb-11e7-526d-964b-91afe7d301cd-attr-5-type" class="er entityLabel">date</text><rect height="21" width="82.82064819335938" y="108" x="45.14947509765625" class="er attributeBoxOdd"/><text style="dominant-baseline: middle; font-size: 10.2px;" transform="translate(50.14947509765625,118.5)" y="0" x="0" id="text-entity-COMMANDE-6a677fbb-11e7-526d-964b-91afe7d301cd-attr-5-name" class="er entityLabel">dateCommande</text></g><g transform="translate(811.30712890625,604 )" id="entity-PAIEMENT-28d709ff-2a5d-534c-906a-435c9f855878"><rect height="150" width="118.18508911132812" y="0" x="0" class="er entityBox"/><text style="dominant-baseline: middle; text-anchor: middle; font-size: 12px;" transform="translate(59.09254455566406,12)" y="0" x="0" id="text-entity-PAIEMENT-28d709ff-2a5d-534c-906a-435c9f855878" class="er entityLabel">PAIEMENT</text><rect height="21" width="45.14947509765625" y="24" x="0" class="er attributeBoxOdd"/><text style="dominant-baseline: middle; font-size: 10.2px;" transform="translate(5,34.5)" y="0" x="0" id="text-entity-PAIEMENT-28d709ff-2a5d-534c-906a-435c9f855878-attr-1-type" class="er entityLabel">string</text><rect height="21" width="73.03561401367188" y="24" x="45.14947509765625" class="er attributeBoxOdd"/><text style="dominant-baseline: middle; font-size: 10.2px;" transform="translate(50.14947509765625,34.5)" y="0" x="0" id="text-entity-PAIEMENT-28d709ff-2a5d-534c-906a-435c9f855878-attr-1-name" class="er entityLabel">id</text><rect height="21" width="45.14947509765625" y="45" x="0" class="er attributeBoxEven"/><text style="dominant-baseline: middle; font-size: 10.2px;" transform="translate(5,55.5)" y="0" x="0" id="text-entity-PAIEMENT-28d709ff-2a5d-534c-906a-435c9f855878-attr-2-type" class="er entityLabel">string</text><rect height="21" width="73.03561401367188" y="45" x="45.14947509765625" class="er attributeBoxEven"/><text style="dominant-baseline: middle; font-size: 10.2px;" transform="translate(50.14947509765625,55.5)" y="0" x="0" id="text-entity-PAIEMENT-28d709ff-2a5d-534c-906a-435c9f855878-attr-2-name" class="er entityLabel">commandeId</text><rect height="21" width="45.14947509765625" y="66" x="0" class="er attributeBoxOdd"/><text style="dominant-baseline: middle; font-size: 10.2px;" transform="translate(5,76.5)" y="0" x="0" id="text-entity-PAIEMENT-28d709ff-2a5d-534c-906a-435c9f855878-attr-3-type" class="er entityLabel">number</text><rect height="21" width="73.03561401367188" y="66" x="45.14947509765625" class="er attributeBoxOdd"/><text style="dominant-baseline: middle; font-size: 10.2px;" transform="translate(50.14947509765625,76.5)" y="0" x="0" id="text-entity-PAIEMENT-28d709ff-2a5d-534c-906a-435c9f855878-attr-3-name" class="er entityLabel">montant</text><rect height="21" width="45.14947509765625" y="87" x="0" class="er attributeBoxEven"/><text style="dominant-baseline: middle; font-size: 10.2px;" transform="translate(5,97.5)" y="0" x="0" id="text-entity-PAIEMENT-28d709ff-2a5d-534c-906a-435c9f855878-attr-4-type" class="er entityLabel">enum</text><rect height="21" width="73.03561401367188" y="87" x="45.14947509765625" class="er attributeBoxEven"/><text style="dominant-baseline: middle; font-size: 10.2px;" transform="translate(50.14947509765625,97.5)" y="0" x="0" id="text-entity-PAIEMENT-28d709ff-2a5d-534c-906a-435c9f855878-attr-4-name" class="er entityLabel">methode</text><rect height="21" width="45.14947509765625" y="108" x="0" class="er attributeBoxOdd"/><text style="dominant-baseline: middle; font-size: 10.2px;" transform="translate(5,118.5)" y="0" x="0" id="text-entity-PAIEMENT-28d709ff-2a5d-534c-906a-435c9f855878-attr-5-type" class="er entityLabel">enum</text><rect height="21" width="73.03561401367188" y="108" x="45.14947509765625" class="er attributeBoxOdd"/><text style="dominant-baseline: middle; font-size: 10.2px;" transform="translate(50.14947509765625,118.5)" y="0" x="0" id="text-entity-PAIEMENT-28d709ff-2a5d-534c-906a-435c9f855878-attr-5-name" class="er entityLabel">statut</text><rect height="21" width="45.14947509765625" y="129" x="0" class="er attributeBoxEven"/><text style="dominant-baseline: middle; font-size: 10.2px;" transform="translate(5,139.5)" y="0" x="0" id="text-entity-PAIEMENT-28d709ff-2a5d-534c-906a-435c9f855878-attr-6-type" class="er entityLabel">date</text><rect height="21" width="73.03561401367188" y="129" x="45.14947509765625" class="er attributeBoxEven"/><text style="dominant-baseline: middle; font-size: 10.2px;" transform="translate(50.14947509765625,139.5)" y="0" x="0" id="text-entity-PAIEMENT-28d709ff-2a5d-534c-906a-435c9f855878-attr-6-name" class="er entityLabel">datePaiement</text></g><g transform="translate(1029.4922180175781,604 )" id="entity-PROMOTION-81c5da0d-f388-5cbe-80e3-b13a59489258"><rect height="150" width="144.9395751953125" y="0" x="0" class="er entityBox"/><text style="dominant-baseline: middle; text-anchor: middle; font-size: 12px;" transform="translate(72.46978759765625,12)" y="0" x="0" id="text-entity-PROMOTION-81c5da0d-f388-5cbe-80e3-b13a59489258" class="er entityLabel">PROMOTION</text><rect height="21" width="46.265625" y="24" x="0" class="er attributeBoxOdd"/><text style="dominant-baseline: middle; font-size: 10.2px;" transform="translate(5,34.5)" y="0" x="0" id="text-entity-PROMOTION-81c5da0d-f388-5cbe-80e3-b13a59489258-attr-1-type" class="er entityLabel">string</text><rect height="21" width="98.6739501953125" y="24" x="46.265625" class="er attributeBoxOdd"/><text style="dominant-baseline: middle; font-size: 10.2px;" transform="translate(51.265625,34.5)" y="0" x="0" id="text-entity-PROMOTION-81c5da0d-f388-5cbe-80e3-b13a59489258-attr-1-name" class="er entityLabel">id</text><rect height="21" width="46.265625" y="45" x="0" class="er attributeBoxEven"/><text style="dominant-baseline: middle; font-size: 10.2px;" transform="translate(5,55.5)" y="0" x="0" id="text-entity-PROMOTION-81c5da0d-f388-5cbe-80e3-b13a59489258-attr-2-type" class="er entityLabel">string</text><rect height="21" width="98.6739501953125" y="45" x="46.265625" class="er attributeBoxEven"/><text style="dominant-baseline: middle; font-size: 10.2px;" transform="translate(51.265625,55.5)" y="0" x="0" id="text-entity-PROMOTION-81c5da0d-f388-5cbe-80e3-b13a59489258-attr-2-name" class="er entityLabel">codePromo</text><rect height="21" width="46.265625" y="66" x="0" class="er attributeBoxOdd"/><text style="dominant-baseline: middle; font-size: 10.2px;" transform="translate(5,76.5)" y="0" x="0" id="text-entity-PROMOTION-81c5da0d-f388-5cbe-80e3-b13a59489258-attr-3-type" class="er entityLabel">number</text><rect height="21" width="98.6739501953125" y="66" x="46.265625" class="er attributeBoxOdd"/><text style="dominant-baseline: middle; font-size: 10.2px;" transform="translate(51.265625,76.5)" y="0" x="0" id="text-entity-PROMOTION-81c5da0d-f388-5cbe-80e3-b13a59489258-attr-3-name" class="er entityLabel">remisePourcentage</text><rect height="21" width="46.265625" y="87" x="0" class="er attributeBoxEven"/><text style="dominant-baseline: middle; font-size: 10.2px;" transform="translate(5,97.5)" y="0" x="0" id="text-entity-PROMOTION-81c5da0d-f388-5cbe-80e3-b13a59489258-attr-4-type" class="er entityLabel">date</text><rect height="21" width="98.6739501953125" y="87" x="46.265625" class="er attributeBoxEven"/><text style="dominant-baseline: middle; font-size: 10.2px;" transform="translate(51.265625,97.5)" y="0" x="0" id="text-entity-PROMOTION-81c5da0d-f388-5cbe-80e3-b13a59489258-attr-4-name" class="er entityLabel">dateDebut</text><rect height="21" width="46.265625" y="108" x="0" class="er attributeBoxOdd"/><text style="dominant-baseline: middle; font-size: 10.2px;" transform="translate(5,118.5)" y="0" x="0" id="text-entity-PROMOTION-81c5da0d-f388-5cbe-80e3-b13a59489258-attr-5-type" class="er entityLabel">date</text><rect height="21" width="98.6739501953125" y="108" x="46.265625" class="er attributeBoxOdd"/><text style="dominant-baseline: middle; font-size: 10.2px;" transform="translate(51.265625,118.5)" y="0" x="0" id="text-entity-PROMOTION-81c5da0d-f388-5cbe-80e3-b13a59489258-attr-5-name" class="er entityLabel">dateFin</text><rect height="21" width="46.265625" y="129" x="0" class="er attributeBoxEven"/><text style="dominant-baseline: middle; font-size: 10.2px;" transform="translate(5,139.5)" y="0" x="0" id="text-entity-PROMOTION-81c5da0d-f388-5cbe-80e3-b13a59489258-attr-6-type" class="er entityLabel">boolean</text><rect height="21" width="98.6739501953125" y="129" x="46.265625" class="er attributeBoxEven"/><text style="dominant-baseline: middle; font-size: 10.2px;" transform="translate(51.265625,139.5)" y="0" x="0" id="text-entity-PROMOTION-81c5da0d-f388-5cbe-80e3-b13a59489258-attr-6-name" class="er entityLabel">statut</text></g><rect height="14" width="7" y="527.5029296875" x="113.68163299560547" class="er relationshipLabelBox"/><text style="text-anchor: middle; dominant-baseline: middle; font-size: 12px;" y="534.5029296875" x="117.18163299560547" id="rel1" class="er relationshipLabel">a</text><rect height="14" width="42.6953125" y="548.26953125" x="314.2174987792969" class="er relationshipLabelBox"/><text style="text-anchor: middle; dominant-baseline: middle; font-size: 12px;" y="555.26953125" x="335.5651550292969" id="rel2" class="er relationshipLabel">contient</text><rect height="14" width="7" y="494.7720642089844" x="474.914306640625" class="er relationshipLabelBox"/><text style="text-anchor: middle; dominant-baseline: middle; font-size: 12px;" y="501.7720642089844" x="478.414306640625" id="rel3" class="er relationshipLabel">a</text><rect height="14" width="32.34765625" y="270.75" x="854.2261962890625" class="er relationshipLabelBox"/><text style="text-anchor: middle; dominant-baseline: middle; font-size: 12px;" y="277.75" x="870.4000244140625" id="rel4" class="er relationshipLabel">passe</text><rect height="14" width="42.6953125" y="578.8314819335938" x="610.189208984375" class="er relationshipLabelBox"/><text style="text-anchor: middle; dominant-baseline: middle; font-size: 12px;" y="585.8314819335938" x="631.536865234375" id="rel5" class="er relationshipLabel">contient</text><rect height="14" width="7" y="531.25" x="866.9000244140625" class="er relationshipLabelBox"/><text style="text-anchor: middle; dominant-baseline: middle; font-size: 12px;" y="538.25" x="870.4000244140625" id="rel6" class="er relationshipLabel">a</text><rect height="14" width="53.703125" y="506.3165283203125" x="1007.3077392578125" class="er relationshipLabelBox"/><text style="text-anchor: middle; dominant-baseline: middle; font-size: 12px;" y="513.3165283203125" x="1034.1593017578125" id="rel7" class="er relationshipLabel">peut avoir</text></svg>